<?xml version="1.0" encoding="UTF-8"?>
<svg width="800" height="600" viewBox="0 0 800 600" fill="none" xmlns="http://www.w3.org/2000/svg">
  <!-- Background Circuit Pattern -->
  <path d="M100 300 Q 400 100 700 300" stroke="#E0E7FF" stroke-width="2" fill="none"/>
  <path d="M100 350 Q 400 150 700 350" stroke="#E0E7FF" stroke-width="2" fill="none"/>
  <path d="M100 400 Q 400 200 700 400" stroke="#E0E7FF" stroke-width="2" fill="none"/>
  
  <!-- Main Circuit Board -->
  <rect x="200" y="150" width="400" height="300" rx="20" fill="#0055FF" opacity="0.1"/>
  <rect x="220" y="170" width="360" height="260" rx="15" stroke="#0055FF" stroke-width="3" fill="none"/>
  
  <!-- Circuit Components -->
  <circle cx="300" cy="250" r="20" fill="#00C2FF"/>
  <circle cx="500" cy="250" r="20" fill="#00C2FF"/>
  <circle cx="400" cy="350" r="30" fill="#0055FF"/>
  
  <!-- Connection Lines -->
  <line x1="300" y1="270" x2="300" y2="350" stroke="#0055FF" stroke-width="3"/>
  <line x1="500" y1="270" x2="500" y2="350" stroke="#0055FF" stroke-width="3"/>
  <line x1="300" y1="350" x2="500" y2="350" stroke="#0055FF" stroke-width="3"/>
  
  <!-- Small Decorative Elements -->
  <circle cx="350" cy="200" r="5" fill="#0055FF"/>
  <circle cx="450" cy="200" r="5" fill="#0055FF"/>
  <circle cx="350" cy="400" r="5" fill="#0055FF"/>
  <circle cx="450" cy="400" r="5" fill="#0055FF"/>
  
  <!-- Connection Points -->
  <rect x="280" y="230" width="40" height="40" rx="5" stroke="#0055FF" stroke-width="2" fill="none"/>
  <rect x="480" y="230" width="40" height="40" rx="5" stroke="#0055FF" stroke-width="2" fill="none"/>
  <rect x="380" y="330" width="40" height="40" rx="5" stroke="#0055FF" stroke-width="2" fill="none"/>
</svg> 